# xmcd CD database file
#
# Track frame offsets:
#	150
#	20647
#	43805
#	56905
#
# Disc length: 1030 seconds
#
# Revision: 0
# Processed by: cddbd v1.5PL3 Copyright (c) Steve Scherf et al.
# Submitted via: CDex 1.51
#
DISCID=35040404
DTITLE=RK Standard feat.Risa - missing
DYEAR=2000
DGENRE=JPop
TTITLE0=missing
TTITLE1=a voice
TTITLE2=missing (mb version)
TTITLE3=missing (for you)
EXTD=YEAR: 2000
EXTT0=
EXTT1=
EXTT2=
EXTT3=
PLAYORDER=
